<?xml version="1.0" standalone="no"?>
<!DOCTYPE svg PUBLIC "-//W3C//DTD SVG 20010904//EN"
 "http://www.w3.org/TR/2001/REC-SVG-20010904/DTD/svg10.dtd">
<svg version="1.0" xmlns="http://www.w3.org/2000/svg"
 width="1201.000000pt" height="1059.000000pt" viewBox="0 0 1201.000000 1059.000000"
 preserveAspectRatio="xMidYMid meet">

<g transform="translate(0.000000,1059.000000) scale(0.100000,-0.100000)"
fill="#000000" stroke="none">
<path d="M6593 10555 c-426 -57 -799 -196 -1143 -426 -398 -267 -695 -606
-905 -1034 -172 -349 -257 -686 -272 -1075 -23 -616 176 -1230 556 -1717 l56
-72 900 1 c812 0 888 2 775 14 -167 18 -323 49 -450 90 -105 35 -280 114 -299
137 -7 9 11 86 60 257 39 135 72 246 74 248 2 2 54 -22 116 -52 228 -111 491
-176 716 -176 148 0 247 20 350 71 148 74 223 183 231 336 5 99 -13 164 -67
243 -72 105 -244 217 -466 303 -49 19 -130 51 -180 70 -228 87 -444 216 -566
337 -178 175 -248 360 -236 626 6 149 22 214 81 339 129 272 371 441 759 529
l27 6 0 265 0 265 220 0 220 0 0 -250 0 -249 33 -5 c17 -3 70 -8 117 -11 168
-11 416 -76 543 -142 l54 -28 -68 -235 c-38 -129 -71 -241 -74 -248 -3 -10
-14 -8 -45 8 -130 66 -334 129 -483 149 -43 6 -136 11 -206 11 -197 0 -315
-36 -411 -126 -102 -95 -134 -254 -78 -376 63 -136 213 -233 616 -398 332
-135 489 -227 633 -370 183 -181 258 -386 246 -675 -10 -256 -95 -449 -272
-620 -159 -154 -331 -239 -607 -299 -19 -4 -28 -13 -28 -25 0 -18 16 -19 363
-24 285 -4 376 -8 430 -21 225 -53 421 -154 569 -294 l68 -64 67 55 c95 77
306 296 385 397 272 351 447 748 524 1190 32 179 43 509 25 696 -41 411 -186
829 -406 1169 -203 316 -510 619 -830 820 -111 70 -357 191 -488 239 -128 47
-330 100 -487 127 -161 27 -587 36 -747 14z"/>
<path d="M11330 6294 c-65 -13 -155 -49 -212 -86 -45 -28 -356 -332 -1103
-1079 l-1040 -1039 -1603 0 c-1777 0 -1648 -5 -1678 65 -18 43 -18 166 -1 208
28 67 -51 61 1061 67 988 6 1012 6 1072 27 196 66 328 193 390 378 34 100 38
236 10 329 -62 209 -214 357 -421 411 -53 13 -321 15 -2415 15 -2610 0 -2414
5 -2554 -67 -66 -34 -160 -125 -1397 -1362 -1293 -1293 -1328 -1328 -1363
-1401 -67 -140 -66 -105 -66 -1220 0 -1116 -1 -1082 66 -1220 26 -52 58 -95
108 -145 113 -112 243 -165 406 -165 104 0 180 19 274 67 66 34 156 121 1276
1240 l1205 1203 2780 3 c2587 2 2784 4 2835 19 30 10 84 32 120 49 59 30 182
149 1447 1413 l1381 1381 40 85 c83 175 81 348 -5 518 -94 187 -274 300 -488
307 -55 2 -111 1 -125 -1z"/>
</g>
</svg>
