<?xml version="1.0" standalone="no"?>
<!DOCTYPE svg PUBLIC "-//W3C//DTD SVG 20010904//EN"
 "http://www.w3.org/TR/2001/REC-SVG-20010904/DTD/svg10.dtd">
<svg version="1.0" xmlns="http://www.w3.org/2000/svg"
 width="1090.000000pt" height="1090.000000pt" viewBox="0 0 1090.000000 1090.000000"
 preserveAspectRatio="xMidYMid meet">

<g transform="translate(0.000000,1090.000000) scale(0.100000,-0.100000)"
fill="#000000" stroke="none">
<path d="M5162 10873 c39 -3 47 -8 51 -26 4 -18 5 -17 6 6 1 26 0 27 -51 25
l-53 -2 47 -3z"/>
<path d="M5023 10863 c9 -2 25 -2 35 0 9 3 1 5 -18 5 -19 0 -27 -2 -17 -5z"/>
<path d="M4725 10844 c-117 -15 -265 -41 -271 -47 -5 -5 16 -200 21 -206 5 -5
340 28 395 39 25 5 107 14 183 21 76 7 133 15 127 19 -6 4 -39 3 -73 -2 -34
-5 -76 -7 -94 -4 -17 2 -33 1 -35 -4 -2 -5 -28 -10 -58 -11 l-55 -3 -8 84
c-10 103 -15 130 -25 129 -4 -1 -52 -7 -107 -15z"/>
<path d="M4860 10851 c0 -4 11 -6 25 -3 14 2 25 6 25 8 0 2 -11 4 -25 4 -14 0
-25 -4 -25 -9z"/>
<path d="M5222 10765 c0 -16 2 -22 5 -12 2 9 2 23 0 30 -3 6 -5 -1 -5 -18z"/>
<path d="M5232 10695 c0 -16 2 -22 5 -12 2 9 2 23 0 30 -3 6 -5 -1 -5 -18z"/>
<path d="M5181 10174 c0 -11 3 -14 6 -6 3 7 2 16 -1 19 -3 4 -6 -2 -5 -13z"/>
<path d="M8166 10118 l-26 -33 28 -25 c16 -14 90 -74 165 -135 75 -60 202
-163 281 -227 79 -65 148 -118 153 -118 4 0 1 6 -8 13 -50 39 -118 97 -149
127 -19 19 -38 33 -42 32 -4 -1 -16 10 -27 25 -12 14 -21 22 -21 18 0 -4 -7
-2 -15 5 -20 17 -19 19 20 63 l33 38 94 -67 c91 -66 137 -101 203 -156 18 -16
37 -28 41 -28 5 0 -4 11 -21 25 -46 39 -321 246 -396 297 -68 48 -276 178
-284 178 -2 0 -15 -15 -29 -32z"/>
<path d="M2200 9813 c-219 -160 -620 -509 -620 -540 0 -6 24 -32 53 -58 28
-27 79 -74 112 -104 33 -31 168 -155 299 -276 l240 -219 128 134 c71 74 133
134 139 132 6 -1 8 2 4 7 -7 13 96 130 111 126 6 -2 11 2 10 9 -2 19 166 197
180 192 8 -3 11 1 7 10 -3 9 5 27 20 42 l25 27 -305 280 c-168 154 -310 283
-317 287 -6 3 -45 -19 -86 -49z"/>
<path d="M4069 9783 c-1 -5 -1 -19 -2 -33 0 -23 0 -23 -4 -2 -5 25 -34 30 -52
8 -6 -8 -10 -32 -9 -55 2 -32 6 -40 18 -35 8 3 47 11 85 18 l71 11 -7 32 c-3
18 -12 40 -19 48 -13 15 -79 21 -81 8z"/>
<path d="M8600 9756 c0 -2 7 -7 16 -10 8 -3 12 -2 9 4 -6 10 -25 14 -25 6z"/>
<path d="M8865 9642 c4 -8 -2 -24 -16 -40 l-23 -27 29 27 c24 23 27 30 16 40
-11 11 -13 10 -6 0z"/>
<path d="M8789 9557 c11 -13 17 -15 28 -6 7 7 11 15 7 18 -4 3 -9 0 -11 -7 -4
-10 -8 -10 -21 0 -15 12 -16 11 -3 -5z"/>
<path d="M2916 9170 c4 -8 27 -32 51 -54 l43 -39 -68 -71 c-38 -39 -98 -103
-133 -141 -80 -87 -268 -292 -291 -317 -10 -10 -14 -18 -10 -18 5 0 26 19 48
43 110 120 409 443 418 452 50 46 50 47 -11 106 -31 29 -52 47 -47 39z"/>
<path d="M5243 8970 c-59 -34 -101 -95 -108 -157 -2 -21 -2 -29 1 -18 24 89
59 141 118 173 17 9 65 19 106 23 l75 6 -70 1 c-61 2 -77 -2 -122 -28z"/>
<path d="M5473 8969 c20 -11 37 -23 37 -27 0 -3 -37 -45 -82 -92 l-83 -85 88
85 c48 46 87 88 87 92 0 10 -61 48 -75 48 -5 -1 7 -10 28 -21z"/>
<path d="M2590 8919 c0 -5 5 -7 10 -4 6 3 10 8 10 11 0 2 -4 4 -10 4 -5 0 -10
-5 -10 -11z"/>
<path d="M5131 8739 c-1 -29 27 -104 35 -96 3 3 0 16 -7 29 -7 12 -16 39 -20
58 -6 29 -7 31 -8 9z"/>
<path d="M6820 8728 c0 -7 -3 -24 -5 -38 -4 -20 -3 -18 6 5 7 17 17 33 23 37
7 5 4 8 -6 8 -10 0 -18 -6 -18 -12z"/>
<path d="M6888 8723 c7 -3 16 -2 19 1 4 3 -2 6 -13 5 -11 0 -14 -3 -6 -6z"/>
<path d="M6928 8713 c7 -3 16 -2 19 1 4 3 -2 6 -13 5 -11 0 -14 -3 -6 -6z"/>
<path d="M6973 8703 c17 -5 22 -34 9 -64 -4 -9 -37 -49 -74 -90 -38 -40 -68
-76 -68 -80 0 -7 52 47 127 131 12 14 26 44 31 68 10 41 9 42 -17 41 -17 -1
-20 -3 -8 -6z"/>
<path d="M2400 8628 c24 -27 45 -48 47 -48 8 0 0 9 -44 50 l-48 45 45 -47z"/>
<path d="M6792 8594 c-7 -37 -11 -68 -9 -71 6 -5 30 113 26 126 -3 7 -10 -18
-17 -55z"/>
<path d="M1008 8592 c-21 -23 -140 -202 -220 -332 -126 -201 -244 -428 -231
-441 20 -20 897 -498 904 -493 5 3 16 19 24 35 15 29 16 29 48 14 27 -14 29
-14 13 -1 -10 8 -23 17 -29 19 -6 2 13 47 43 100 29 53 58 93 63 90 6 -3 7 -1
3 5 -4 7 46 107 110 224 145 264 167 309 157 318 -6 5 -794 439 -864 476 -4 2
-13 -4 -21 -14z"/>
<path d="M6771 8495 c-1 -11 -4 -31 -6 -45 l-6 -25 11 25 c6 13 9 33 7 45 -4
19 -4 19 -6 0z"/>
<path d="M6831 8424 c0 -11 3 -14 6 -6 3 7 2 16 -1 19 -3 4 -6 -2 -5 -13z"/>
<path d="M6751 8401 c-1 -13 -7 -49 -15 -80 -18 -71 -29 -147 -17 -111 18 51
43 188 38 201 -3 8 -6 4 -6 -10z"/>
<path d="M6840 8391 c0 -6 4 -13 10 -16 6 -3 7 1 4 9 -7 18 -14 21 -14 7z"/>
<path d="M6884 8336 c29 -24 30 -25 18 -76 -17 -71 -13 -98 3 -30 21 82 19 93
-18 113 l-32 17 29 -24z"/>
<path d="M8886 8338 c-3 -13 -19 -133 -36 -268 -17 -135 -37 -290 -44 -345 -8
-55 -13 -101 -12 -101 3 -4 311 -42 314 -39 6 6 98 735 92 735 -3 0 -72 9
-154 20 -81 11 -150 20 -152 20 -2 0 -6 -10 -8 -22z"/>
<path d="M6708 8173 c7 -3 16 -2 19 1 4 3 -2 6 -13 5 -11 0 -14 -3 -6 -6z"/>
<path d="M6790 8155 c72 -18 100 -17 35 1 -27 7 -59 13 -70 13 -11 0 5 -7 35
-14z"/>
<path d="M6882 8150 c0 -14 2 -19 5 -12 2 6 2 18 0 25 -3 6 -5 1 -5 -13z"/>
<path d="M4368 8103 c-21 -5 -21 -5 -6 -38 15 -33 32 -27 36 13 3 32 2 34 -30
25z"/>
<path d="M1887 8029 c7 -7 15 -10 18 -7 3 3 -2 9 -12 12 -14 6 -15 5 -6 -5z"/>
<path d="M1947 7999 c7 -7 15 -10 18 -7 3 3 -2 9 -12 12 -14 6 -15 5 -6 -5z"/>
<path d="M1997 7969 c7 -7 15 -10 18 -7 3 3 -2 9 -12 12 -14 6 -15 5 -6 -5z"/>
<path d="M2040 7945 c11 -13 10 -21 -8 -45 -12 -16 -22 -31 -22 -34 0 -3 -15
-31 -34 -63 -18 -32 -49 -87 -68 -123 -66 -120 -91 -165 -98 -175 -17 -21 -91
-167 -88 -171 5 -4 338 593 338 605 0 5 -7 12 -16 15 -14 5 -15 4 -4 -9z"/>
<path d="M1963 7885 c0 -8 4 -12 9 -9 5 3 6 10 3 15 -9 13 -12 11 -12 -6z"/>
<path d="M8880 7386 c0 -19 48 -76 65 -76 8 0 14 16 17 39 3 33 0 41 -17 45
-36 10 -65 6 -65 -8z"/>
<path d="M9703 7168 c-155 -128 -282 -237 -282 -241 -1 -9 190 -246 199 -246
3 -1 132 105 288 234 186 155 280 240 275 248 -9 15 -193 237 -196 237 -2 0
-129 -105 -284 -232z"/>
<path d="M3093 7362 c-220 -79 -301 -321 -172 -516 61 -92 201 -155 312 -141
285 35 403 387 195 581 -64 59 -122 85 -211 90 -54 4 -85 0 -124 -14z m402
-320 c0 -78 -3 -93 -29 -140 -33 -60 -76 -101 -139 -134 -35 -19 -58 -23 -132
-23 -81 0 -95 3 -142 29 -29 16 -61 38 -70 49 -17 19 -15 19 17 -2 70 -45 103
-55 180 -56 62 0 85 5 132 28 114 56 173 157 166 287 -2 46 0 66 7 59 6 -6 10
-49 10 -97z"/>
<path d="M1570 7356 c0 -2 7 -7 16 -10 8 -3 12 -2 9 4 -6 10 -25 14 -25 6z"/>
<path d="M1704 7305 c-4 -8 -11 -12 -17 -8 -6 3 -7 1 -3 -5 10 -16 14 -15 26
8 6 11 8 20 5 20 -3 0 -8 -7 -11 -15z"/>
<path d="M8776 7201 c-10 -16 -45 -296 -38 -303 9 -8 224 -37 238 -31 12 4 51
300 41 310 -7 6 -174 32 -214 33 -12 0 -24 -4 -27 -9z"/>
<path d="M9314 6686 c-3 -7 -4 -35 -2 -60 l3 -47 34 29 35 29 -23 31 c-24 35
-39 40 -47 18z"/>
<path d="M9000 6540 c-58 -50 -108 -90 -112 -90 -22 0 -1 -37 68 -119 42 -50
78 -91 81 -91 7 0 205 165 227 189 19 21 18 21 -56 108 -41 49 -81 89 -89 90
-8 1 -61 -38 -119 -87z"/>
<path d="M6980 6581 c-123 -26 -222 -137 -235 -263 -3 -29 -12 -172 -20 -318
-8 -146 -27 -463 -41 -706 -25 -421 -26 -444 -9 -499 13 -46 28 -70 73 -115
69 -69 116 -86 257 -94 55 -4 134 -9 175 -11 653 -42 669 -42 754 19 93 66
125 134 133 281 5 86 3 105 -8 105 -8 0 -31 9 -52 20 -26 14 -37 16 -37 8 -2
-49 -20 -281 -22 -284 -4 -3 -736 38 -1091 62 l-98 7 5 71 c4 39 13 193 22
341 56 964 71 1205 77 1211 6 7 1174 -59 1181 -67 2 -2 -2 -101 -10 -219 -7
-118 -13 -222 -14 -231 0 -11 11 -18 33 -22 17 -2 33 -4 34 -3 2 1 -6 20 -17
41 -19 38 -27 116 -14 149 5 12 15 15 45 10 l39 -7 0 44 c1 24 3 69 6 100 15
144 -81 282 -221 318 -22 5 -134 15 -250 21 -115 6 -230 13 -255 15 -25 2
-101 7 -170 10 -69 3 -150 7 -180 9 -30 3 -71 1 -90 -3z m600 -92 c30 -6 7 -7
-70 -4 -63 3 -136 5 -162 5 -27 0 -48 5 -48 10 0 12 200 4 280 -11z m-194
-1825 c4 -14 2 -30 -3 -35 -5 -5 -9 2 -8 19 0 22 -4 27 -25 27 -21 0 -25 -5
-25 -27 1 -17 -3 -24 -8 -19 -5 5 -7 21 -3 35 5 21 13 26 36 26 23 0 31 -5 36
-26z"/>
<path d="M4720 6230 c-52 -10 -336 -62 -630 -115 -756 -136 -700 -124 -700
-150 0 -41 -31 -124 -57 -156 -40 -47 -90 -65 -261 -93 -84 -14 -157 -28 -163
-31 -19 -12 -8 -133 36 -378 25 -139 48 -260 51 -270 5 -16 9 -16 52 9 26 15
61 38 77 50 17 13 39 27 50 31 53 22 165 97 165 111 0 9 -19 119 -42 245 -24
134 -37 231 -32 236 5 4 191 41 414 81 223 39 576 103 785 141 209 37 383 65
386 61 3 -4 41 -200 83 -437 43 -236 89 -494 104 -572 14 -78 23 -145 20 -148
-6 -6 -97 -23 -828 -155 -278 -49 -515 -92 -527 -95 -19 -5 -21 -9 -13 -31 16
-41 12 -79 -14 -116 l-24 -36 30 -29 29 -30 127 24 c70 13 397 72 727 132 671
121 665 119 753 216 53 58 92 150 92 217 0 16 -29 193 -65 391 -36 199 -77
427 -92 507 -14 80 -34 169 -45 198 -24 65 -103 149 -173 182 -67 32 -185 36
-315 10z m500 -593 c0 -12 -4 -28 -9 -36 -6 -9 -10 -3 -14 20 -2 19 -3 37 0
42 8 13 23 -4 23 -26z m5 -77 c-4 -17 -9 -30 -11 -27 -2 2 -1 18 2 36 4 17 9
30 11 27 3 -2 2 -19 -2 -36z m9 -49 c-4 -17 -9 -30 -11 -27 -3 2 -2 19 2 36 4
17 9 30 11 27 2 -2 1 -18 -2 -36z m21 -121 c-4 -27 -3 -30 4 -15 8 17 10 16
10 -12 1 -17 -3 -34 -8 -37 -12 -8 -22 47 -16 87 4 25 3 28 -4 12 -8 -18 -10
-16 -10 11 -1 17 2 34 6 38 12 11 23 -45 18 -84z m17 -102 c-8 -8 -9 -4 -5 13
4 13 8 18 11 10 2 -7 -1 -18 -6 -23z m-2170 -110 c-16 -16 -15 -50 1 -68 10
-12 9 -12 -5 -1 -21 15 -24 51 -6 69 7 7 14 12 17 12 3 0 0 -5 -7 -12z m73 -9
c10 -30 2 -32 -12 -3 -6 13 -7 24 -3 24 5 0 12 -9 15 -21z"/>
<path d="M5720 6180 c0 -5 5 -10 10 -10 6 0 10 5 10 10 0 6 -4 10 -10 10 -5 0
-10 -4 -10 -10z"/>
<path d="M5665 6141 c-3 -5 -2 -12 3 -15 5 -3 9 1 9 9 0 17 -3 19 -12 6z"/>
<path d="M7361 6114 c0 -11 3 -14 6 -6 3 7 2 16 -1 19 -3 4 -6 -2 -5 -13z"/>
<path d="M7351 5994 c0 -11 3 -14 6 -6 3 7 2 16 -1 19 -3 4 -6 -2 -5 -13z"/>
<path d="M7141 5914 c0 -11 3 -14 6 -6 3 7 2 16 -1 19 -3 4 -6 -2 -5 -13z"/>
<path d="M7131 5794 c0 -11 3 -14 6 -6 3 7 2 16 -1 19 -3 4 -6 -2 -5 -13z"/>
<path d="M9358 5723 c6 -2 18 -2 25 0 6 3 1 5 -13 5 -14 0 -19 -2 -12 -5z"/>
<path d="M9565 5707 c-8 -26 -23 -352 -17 -358 7 -6 72 -11 802 -54 228 -13
443 -27 478 -31 l62 -6 0 187 c0 140 -3 187 -12 190 -11 3 -502 33 -1068 65
-91 6 -182 12 -203 14 -24 3 -40 0 -42 -7z"/>
<path d="M7396 5638 c-3 -18 -7 -74 -9 -125 l-3 -92 83 -3 c98 -4 89 -16 96
139 6 118 10 113 -93 113 l-69 0 -5 -32z m64 9 c0 -8 3 -9 8 -1 4 6 23 10 42
10 l35 -1 3 -112 3 -112 -76 0 -75 0 0 92 c0 51 3 101 6 112 6 23 54 33 54 12z"/>
<path d="M7331 5624 c0 -11 3 -14 6 -6 3 7 2 16 -1 19 -3 4 -6 -2 -5 -13z"/>
<path d="M3602 5603 c-83 -41 -112 -144 -65 -236 8 -16 19 -25 25 -21 6 4 8 3
5 -3 -8 -13 9 -28 56 -48 33 -13 37 -14 37 0 0 8 -11 17 -24 21 -13 3 -36 19
-51 34 -16 16 -31 28 -34 25 -4 -2 -8 27 -9 65 -2 40 1 71 7 75 15 9 14 28 -1
19 -8 -4 -10 -3 -5 2 5 5 12 9 16 9 10 0 61 42 56 46 -2 2 19 5 47 7 36 2 59
-2 84 -17 41 -24 48 -26 38 -8 -4 7 -3 8 2 4 5 -5 9 -16 9 -25 0 -9 5 -16 12
-15 7 2 10 -4 7 -12 -4 -9 0 -15 10 -15 23 0 20 14 -11 51 -49 58 -142 76
-211 42z"/>
<path d="M3636 5486 c-14 -19 -26 -38 -26 -43 0 -10 57 -43 76 -43 8 0 14 5
14 11 0 6 -6 9 -12 6 -7 -2 -25 2 -40 10 -31 15 -37 25 -10 17 14 -5 15 -4 2
5 -13 9 -12 13 8 33 15 15 21 17 17 7 -9 -23 19 -41 57 -37 46 4 32 23 -15 21
-33 -2 -37 1 -32 17 10 33 -12 31 -39 -4z m101 -22 c-3 -3 -12 -4 -19 -1 -8 3
-5 6 6 6 11 1 17 -2 13 -5z"/>
<path d="M7321 5494 c0 -11 3 -14 6 -6 3 7 2 16 -1 19 -3 4 -6 -2 -5 -13z"/>
<path d="M3665 5430 c3 -5 8 -10 11 -10 2 0 4 5 4 10 0 6 -5 10 -11 10 -5 0
-7 -4 -4 -10z"/>
<path d="M7111 5424 c0 -11 3 -14 6 -6 3 7 2 16 -1 19 -3 4 -6 -2 -5 -13z"/>
<path d="M7376 5295 c-3 -22 -8 -88 -12 -146 l-6 -106 63 -6 c105 -12 107 -11
113 26 3 17 7 85 10 149 l5 117 -84 3 -85 3 -4 -40z"/>
<path d="M4650 5276 c-25 -6 -44 -15 -42 -21 2 -5 11 -8 20 -7 96 20 136 9
181 -45 32 -38 52 -29 26 11 -36 54 -111 80 -185 62z"/>
<path d="M4572 5238 c-42 -53 -55 -144 -28 -196 28 -53 107 -105 128 -84 12
12 -49 35 -66 25 -6 -3 -8 -3 -4 2 4 4 -4 21 -17 37 -31 37 -39 67 -31 116 4
20 7 45 8 54 1 9 5 15 9 13 9 -6 40 30 32 38 -10 10 -19 8 -31 -5z"/>
<path d="M1868 5225 c-4 -5 -362 -71 -1358 -251 -261 -48 -476 -87 -476 -88
-2 -1 16 -129 38 -276 7 -47 11 -89 10 -93 -1 -5 10 -6 25 -3 71 13 235 43
698 126 275 50 534 97 575 104 41 8 183 34 315 57 132 23 243 45 246 48 6 5
-56 370 -64 378 -2 1 -6 1 -9 -2z"/>
<path d="M4260 5181 c0 -5 16 -18 35 -30 19 -11 40 -31 46 -45 7 -14 17 -22
25 -19 12 4 11 10 -2 32 -25 43 -104 90 -104 62z"/>
<path d="M4653 5148 c-35 -40 -36 -47 -1 -68 36 -22 58 -26 58 -10 0 5 -7 7
-15 4 -11 -5 -13 -2 -9 10 3 9 18 19 33 22 44 10 51 13 51 25 0 8 -14 9 -44 5
-41 -7 -44 -6 -39 14 7 26 -9 26 -34 -2z m20 -4 c-4 -10 1 -17 15 -21 20 -5
20 -5 1 -24 -16 -16 -23 -17 -38 -7 -19 11 -18 12 2 40 23 32 29 35 20 12z"/>
<path d="M7302 5130 c0 -14 2 -19 5 -12 2 6 2 18 0 25 -3 6 -5 1 -5 -13z"/>
<path d="M4185 5051 c-16 -10 -31 -24 -33 -32 -2 -15 49 -49 74 -49 16 0 19
16 4 25 -20 13 -9 24 28 27 49 4 39 24 -11 21 -30 -2 -38 1 -33 13 3 7 4 14 3
13 -1 0 -15 -8 -32 -18z"/>
<path d="M4056 5001 c-3 -4 5 -28 17 -52 21 -41 81 -88 115 -89 24 0 11 20
-22 34 -36 15 -86 73 -86 99 0 18 -15 23 -24 8z"/>
<path d="M9248 4963 c6 -2 18 -2 25 0 6 3 1 5 -13 5 -14 0 -19 -2 -12 -5z"/>
<path d="M9388 4953 c6 -2 18 -2 25 0 6 3 1 5 -13 5 -14 0 -19 -2 -12 -5z"/>
<path d="M8583 4263 c9 -2 23 -2 30 0 6 3 -1 5 -18 5 -16 0 -22 -2 -12 -5z"/>
<path d="M7750 4223 c-19 -2 -75 -7 -125 -13 -49 -5 -117 -12 -150 -15 -33 -3
-100 -10 -150 -15 -49 -5 -155 -16 -235 -24 -80 -9 -192 -20 -250 -26 -58 -6
-125 -13 -150 -16 -25 -2 -133 -13 -240 -24 -107 -11 -242 -25 -300 -30 -58
-5 -118 -12 -135 -15 -16 -2 -61 -7 -100 -10 -38 -3 -108 -10 -155 -15 -47 -5
-155 -16 -240 -25 -85 -8 -195 -20 -245 -25 -49 -5 -117 -12 -150 -15 -33 -3
-100 -10 -150 -15 -230 -24 -570 -59 -630 -65 -22 -2 -92 -9 -155 -15 -63 -6
-171 -17 -240 -25 -69 -8 -155 -17 -193 -20 -37 -4 -67 -9 -67 -12 0 -2 70
-96 155 -208 145 -190 157 -204 183 -200 15 3 207 23 427 45 220 22 486 49
590 60 105 11 325 33 490 50 165 17 473 48 685 70 212 22 588 60 835 85 248
25 466 48 486 51 l37 5 107 225 c58 123 105 228 103 232 -2 4 -19 6 -38 5z"/>
<path d="M1735 4150 c-203 -38 -512 -94 -685 -125 -653 -117 -803 -145 -807
-149 -10 -10 112 -362 124 -359 23 4 263 48 538 97 316 57 456 82 900 162 138
25 277 49 310 55 33 6 61 12 64 14 2 3 -3 42 -12 87 -9 46 -24 129 -33 186
-10 56 -20 101 -23 101 -3 -1 -172 -32 -376 -69z"/>
<path d="M8391 4052 l-243 -36 5 -56 c3 -30 15 -118 26 -195 12 -77 28 -186
36 -242 8 -57 22 -151 31 -210 35 -242 35 -243 51 -243 9 0 43 5 77 10 71 12
319 48 389 57 41 5 47 9 47 29 0 21 -96 698 -121 857 -10 59 -13 67 -32 66
-12 -1 -132 -18 -266 -37z"/>
<path d="M2975 3466 c-3 -6 -50 -236 -105 -511 -55 -275 -143 -713 -196 -973
-53 -261 -93 -476 -90 -479 6 -6 271 -62 298 -63 17 0 21 9 33 66 6 30 4 32
-30 38 -34 7 -36 10 -33 39 3 30 1 32 -39 40 -32 6 -43 13 -43 27 0 26 10 30
55 20 22 -5 40 -8 41 -7 1 1 5 18 9 38 7 36 6 36 -37 45 -35 8 -42 13 -40 29
5 28 7 29 52 17 39 -10 40 -9 46 17 3 14 7 31 9 38 3 7 -13 15 -38 20 -34 7
-43 13 -45 32 -4 23 -2 24 46 17 49 -6 49 -6 56 25 3 17 6 35 6 39 0 4 -21 11
-46 15 -35 5 -44 10 -40 22 3 8 6 19 6 24 0 8 21 6 72 -7 10 -3 18 2 21 13 3
10 8 28 12 39 5 19 1 22 -40 28 -39 6 -45 10 -45 32 0 24 2 24 49 18 49 -6 49
-6 56 26 8 35 -4 49 -40 50 -31 0 -47 14 -39 34 6 15 14 17 50 11 46 -7 50 -4
55 40 4 27 1 30 -38 38 -32 6 -43 13 -43 27 0 27 12 31 54 19 21 -6 39 -9 41
-7 2 2 6 19 10 39 7 36 6 36 -36 45 -44 9 -54 20 -40 42 6 10 18 11 49 3 41
-9 42 -8 48 18 3 14 7 31 9 38 3 7 -13 15 -38 20 -34 7 -43 13 -45 32 -4 23
-2 24 46 17 49 -6 49 -6 56 25 9 46 8 49 -16 49 -36 0 -68 11 -68 24 1 28 16
35 55 26 22 -5 41 -7 43 -5 2 2 7 19 12 39 l8 35 -44 7 c-38 5 -44 10 -44 30
0 24 2 24 49 18 l48 -6 7 33 c7 35 -4 48 -39 49 -31 0 -47 14 -39 34 6 15 14
17 50 11 42 -6 43 -5 52 27 5 18 8 36 6 39 -2 4 -22 9 -44 13 -30 5 -40 11
-40 24 0 28 7 31 52 20 22 -5 42 -7 43 -6 1 2 5 19 9 39 6 36 6 36 -36 45 -43
9 -53 20 -39 42 6 10 18 11 50 3 41 -9 42 -9 48 21 6 28 8 30 44 25 l38 -5 10
46 c5 26 7 49 5 52 -3 3 -75 19 -161 36 -107 22 -156 28 -158 20z"/>
<path d="M7751 3444 c0 -11 3 -14 6 -6 3 7 2 16 -1 19 -3 4 -6 -2 -5 -13z"/>
<path d="M4131 3314 c0 -11 3 -14 6 -6 3 7 2 16 -1 19 -3 4 -6 -2 -5 -13z"/>
<path d="M8872 3130 c0 -14 2 -19 5 -12 2 6 2 18 0 25 -3 6 -5 1 -5 -13z"/>
<path d="M4081 1204 c0 -11 3 -14 6 -6 3 7 2 16 -1 19 -3 4 -6 -2 -5 -13z"/>
<path d="M7698 1063 c7 -3 16 -2 19 1 4 3 -2 6 -13 5 -11 0 -14 -3 -6 -6z"/>
<path d="M7369 836 c-5 -4 -496 -54 -574 -58 l-50 -3 2 -75 c2 -41 5 -89 8
-105 l5 -30 168 17 c92 9 221 22 287 28 188 18 230 24 230 35 0 6 -4 52 -9
103 -7 92 -8 92 -35 92 -15 0 -30 -2 -32 -4z"/>
<path d="M5348 823 c7 -3 16 -2 19 1 4 3 -2 6 -13 5 -11 0 -14 -3 -6 -6z"/>
<path d="M5225 622 c-4 -5 -424 -48 -539 -56 -43 -3 -81 -8 -84 -10 -5 -6 13
-194 20 -201 2 -3 42 -1 89 5 72 8 195 20 354 35 71 7 240 27 241 28 1 1 -3
48 -8 105 l-11 102 -29 -2 c-16 -1 -31 -4 -33 -6z"/>
</g>
</svg>
