<?xml version="1.0" standalone="no"?>
<!DOCTYPE svg PUBLIC "-//W3C//DTD SVG 20010904//EN"
 "http://www.w3.org/TR/2001/REC-SVG-20010904/DTD/svg10.dtd">
<svg version="1.0" xmlns="http://www.w3.org/2000/svg"
 width="795.000000pt" height="769.000000pt" viewBox="0 0 795.000000 769.000000"
 preserveAspectRatio="xMidYMid meet">

<g transform="translate(0.000000,769.000000) scale(0.100000,-0.100000)"
fill="#000000" stroke="none">
<path d="M2830 7475 l0 -105 890 0 890 0 0 105 0 105 -890 0 -890 0 0 -105z
m195 0 c0 -27 -3 -30 -30 -30 -24 0 -31 5 -33 24 -4 27 13 42 43 39 15 -2 20
-11 20 -33z m108 13 c8 -12 7 -21 -2 -32 -19 -23 -58 -20 -66 4 -14 43 44 67
68 28z m1415 -9 c2 -14 -3 -31 -11 -37 -11 -9 -183 -11 -683 -10 l-669 3 -3
38 -3 37 683 -2 683 -3 3 -26z"/>
<path d="M210 7395 l0 -105 885 0 885 0 0 105 0 105 -885 0 -885 0 0 -105z
m1710 31 c6 -8 10 -25 8 -38 l-3 -23 -682 -3 -683 -2 0 34 c0 19 6 37 13 39 6
3 310 6 673 6 565 1 663 -1 674 -13z m-1515 -31 c0 -27 -3 -30 -30 -30 -21 0
-31 5 -33 18 -6 33 6 49 35 45 24 -3 28 -8 28 -33z m106 19 c17 -21 0 -49 -31
-49 -31 0 -48 28 -31 49 8 9 21 16 31 16 10 0 23 -7 31 -16z"/>
<path d="M6710 7373 c-146 -23 -227 -48 -455 -139 -287 -114 -396 -128 -530
-65 l-67 31 7 -38 c12 -67 65 -179 126 -266 67 -97 64 -102 -38 -65 -71 26
-118 60 -139 100 -21 41 -25 33 -12 -21 9 -35 26 -60 82 -115 113 -112 306
-199 496 -224 117 -15 163 -1 430 127 133 64 296 122 397 142 58 12 65 11 109
-10 60 -30 130 -97 140 -134 4 -19 0 -49 -14 -90 -11 -33 -23 -76 -27 -93 -8
-39 2 -33 -165 -111 l-135 -64 -272 7 c-149 4 -277 4 -283 0 -21 -13 -130 -11
-130 2 0 20 -16 24 -128 36 l-107 12 -3 31 -3 32 -77 -25 c-42 -13 -78 -26
-80 -27 -8 -9 36 -304 57 -375 26 -87 103 -149 209 -165 63 -10 84 0 111 52
22 41 25 63 29 177 2 72 9 136 14 143 15 18 72 15 90 -5 8 -10 18 -45 21 -78
9 -87 34 -174 63 -218 53 -81 153 -127 276 -127 84 0 122 15 169 67 54 60 64
99 64 249 l0 132 124 61 c68 34 126 59 130 56 3 -4 6 -66 5 -138 0 -113 -4
-143 -26 -212 -14 -44 -28 -88 -33 -97 -14 -34 12 -18 91 55 l79 74 -13 62
c-19 92 9 292 55 383 62 125 208 141 265 27 68 -132 -63 -417 -208 -454 l-46
-11 -48 -117 c-50 -123 -91 -185 -184 -277 -51 -50 -69 -80 -47 -80 4 0 32 23
62 50 30 28 55 50 57 50 2 0 0 -17 -3 -37 l-6 -38 21 25 c12 14 49 61 82 105
33 44 63 82 65 85 3 3 -14 -34 -39 -82 -42 -83 -43 -86 -18 -68 124 88 329
412 378 596 35 132 47 276 33 412 -12 120 -29 200 -50 240 -22 41 -75 72 -126
74 -44 2 -50 6 -73 43 -108 175 -275 280 -507 321 -75 13 -187 16 -245 7z
m-685 -1009 c77 -9 144 -20 149 -24 14 -14 28 -190 22 -278 -11 -156 -62 -194
-182 -138 -82 38 -126 118 -143 256 -23 195 -24 209 -4 205 10 -2 81 -11 158
-21z m737 -71 c48 -3 95 -11 104 -18 14 -10 18 -36 22 -138 5 -136 -1 -164
-46 -226 -96 -130 -339 -70 -421 104 -20 42 -25 71 -29 174 l-5 124 144 -7
c79 -4 183 -9 231 -13z"/>
<path d="M3023 7193 c-7 -2 -13 -18 -13 -34 l0 -29 707 2 c691 3 708 3 711 22
9 46 9 46 -712 45 -375 0 -687 -3 -693 -6z"/>
<path d="M3100 6915 c0 -13 78 -15 662 -13 518 2 662 6 666 16 3 9 -134 12
-662 12 -587 0 -666 -2 -666 -15z"/>
<path d="M3100 6866 c0 -15 55 -16 665 -16 437 0 665 3 665 10 0 7 -206 10
-597 10 -329 0 -628 3 -665 7 -59 5 -68 4 -68 -11z"/>
<path d="M3100 6805 c0 -13 78 -15 662 -13 518 2 662 6 666 16 3 9 -134 12
-662 12 -587 0 -666 -2 -666 -15z"/>
<path d="M3100 6750 c0 -13 44 -15 352 -12 194 2 355 6 357 8 2 2 2 6 0 8 -2
2 -163 6 -357 8 -308 3 -352 1 -352 -12z"/>
<path d="M3100 6695 c0 -13 78 -15 662 -13 518 2 662 6 666 16 3 9 -134 12
-662 12 -587 0 -666 -2 -666 -15z"/>
<path d="M3100 6645 c0 -13 79 -15 666 -15 528 0 665 3 662 13 -4 9 -148 13
-666 15 -584 2 -662 0 -662 -13z"/>
<path d="M575 6640 c-11 -4 -83 -72 -160 -149 l-140 -141 149 -149 c82 -82
160 -152 173 -156 27 -6 78 17 87 40 3 9 6 33 6 52 0 31 -11 47 -87 124 l-87
89 87 89 c71 72 87 94 87 119 0 57 -66 104 -115 82z"/>
<path d="M1545 6638 c-32 -17 -45 -39 -45 -78 0 -31 10 -45 90 -125 l90 -89
-84 -86 c-45 -47 -86 -97 -90 -113 -14 -58 52 -119 107 -97 12 4 86 73 165
152 l142 143 -142 142 c-170 167 -185 178 -233 151z"/>
<path d="M3100 6585 c0 -13 29 -15 200 -15 171 0 200 2 200 15 0 13 -29 15
-200 15 -171 0 -200 -2 -200 -15z"/>
<path d="M1990 6575 c0 -13 58 -15 465 -15 407 0 465 2 465 15 0 13 -58 15
-465 15 -407 0 -465 -2 -465 -15z"/>
<path d="M1990 6520 c0 -13 57 -15 465 -12 289 1 465 6 465 12 0 6 -176 11
-465 12 -408 3 -465 1 -465 -12z"/>
<path d="M1990 6465 c0 -13 58 -15 465 -15 407 0 465 2 465 15 0 13 -58 15
-465 15 -407 0 -465 -2 -465 -15z"/>
<path d="M3100 6455 c0 -13 81 -15 665 -15 584 0 665 2 665 15 0 13 -81 15
-665 15 -584 0 -665 -2 -665 -15z"/>
<path d="M1990 6416 c0 -14 18 -16 155 -16 97 0 155 4 155 10 0 6 -36 10 -87
10 -49 0 -118 3 -155 7 -59 5 -68 4 -68 -11z"/>
<path d="M3100 6403 c0 -17 36 -18 666 -15 523 2 665 5 661 15 -3 9 -151 13
-665 15 -626 2 -662 1 -662 -15z"/>
<path d="M690 6380 c0 -6 40 -10 100 -10 60 0 100 4 100 10 0 6 -40 10 -100
10 -60 0 -100 -4 -100 -10z"/>
<path d="M960 6380 c0 -6 58 -10 155 -10 97 0 155 4 155 10 0 6 -58 10 -155
10 -97 0 -155 -4 -155 -10z"/>
<path d="M1300 6380 c0 -6 40 -10 100 -10 60 0 100 4 100 10 0 6 -40 10 -100
10 -60 0 -100 -4 -100 -10z"/>
<path d="M1990 6355 c0 -13 58 -15 465 -15 407 0 465 2 465 15 0 13 -58 15
-465 15 -407 0 -465 -2 -465 -15z"/>
<path d="M3100 6345 c0 -13 79 -15 666 -15 528 0 665 3 662 13 -4 9 -148 13
-666 15 -584 2 -662 0 -662 -13z"/>
<path d="M690 6321 c0 -12 129 -17 378 -13 121 2 200 7 197 13 -8 12 -575 12
-575 0z"/>
<path d="M1305 6320 c-4 -6 30 -10 94 -10 61 0 101 4 101 10 0 6 -38 10 -94
10 -53 0 -98 -4 -101 -10z"/>
<path d="M1990 6300 c0 -13 57 -15 462 -12 255 2 465 5 467 8 2 2 2 6 0 9 -3
2 -213 5 -467 7 -405 3 -462 1 -462 -12z"/>
<path d="M3100 6293 c0 -10 74 -13 355 -13 277 0 355 3 355 13 0 9 -78 12
-355 12 -281 0 -355 -2 -355 -12z"/>
<path d="M690 6250 c0 -6 40 -10 100 -10 60 0 100 4 100 10 0 6 -40 10 -100
10 -60 0 -100 -4 -100 -10z"/>
<path d="M960 6250 c0 -6 56 -10 149 -10 89 0 152 4 156 10 4 7 -48 10 -149
10 -97 0 -156 -4 -156 -10z"/>
<path d="M1990 6115 c0 -13 58 -15 465 -15 407 0 465 2 465 15 0 13 -58 15
-465 15 -407 0 -465 -2 -465 -15z"/>
<path d="M3100 6105 c0 -13 81 -15 665 -15 584 0 665 2 665 15 0 13 -81 15
-665 15 -584 0 -665 -2 -665 -15z"/>
<path d="M1990 6060 c0 -20 7 -20 465 -20 458 0 465 0 465 20 0 20 -7 20 -465
20 -458 0 -465 0 -465 -20z"/>
<path d="M3100 6055 c0 -13 81 -15 665 -15 584 0 665 2 665 15 0 13 -81 15
-665 15 -584 0 -665 -2 -665 -15z"/>
<path d="M1990 6005 c0 -13 58 -15 465 -15 407 0 465 2 465 15 0 13 -58 15
-465 15 -407 0 -465 -2 -465 -15z"/>
<path d="M3100 5995 c0 -13 29 -15 200 -15 171 0 200 2 200 15 0 13 -29 15
-200 15 -171 0 -200 -2 -200 -15z"/>
<path d="M1990 5947 c0 -17 10 -18 153 -11 83 4 154 8 156 10 11 10 -15 12
-157 16 -141 3 -152 2 -152 -15z"/>
<path d="M3100 5795 c0 -13 78 -15 662 -13 518 2 662 6 666 16 3 9 -134 12
-662 12 -587 0 -666 -2 -666 -15z"/>
<path d="M6776 5775 c-9 -26 -7 -32 5 -12 6 10 9 21 6 23 -2 3 -7 -2 -11 -11z"/>
<path d="M1990 5765 c0 -13 58 -15 465 -15 407 0 465 2 465 15 0 13 -58 15
-465 15 -407 0 -465 -2 -465 -15z"/>
<path d="M3100 5743 c0 -17 15 -18 200 -15 167 2 200 5 200 17 0 13 -31 15
-200 15 -184 0 -200 -1 -200 -17z"/>
<path d="M6246 5730 c8 -33 64 -127 88 -148 11 -9 16 -11 12 -4 -7 11 1 12 40
6 63 -9 158 -10 207 0 30 6 37 4 31 -5 -12 -20 48 25 77 58 56 63 56 64 -3 43
-30 -10 -85 -24 -122 -31 -79 -13 -241 -8 -274 10 -12 6 -30 30 -42 54 -11 23
-17 31 -14 17z"/>
<path d="M1990 5715 c0 -13 58 -15 465 -15 407 0 465 2 465 15 0 13 -58 15
-465 15 -407 0 -465 -2 -465 -15z"/>
<path d="M6423 5703 c20 -2 54 -2 75 0 20 2 3 4 -38 4 -41 0 -58 -2 -37 -4z"/>
<path d="M1990 5455 c0 -13 58 -15 465 -15 407 0 465 2 465 15 0 13 -58 15
-465 15 -407 0 -465 -2 -465 -15z"/>
<path d="M7647 5048 c57 -60 73 -96 73 -167 0 -121 -82 -271 -243 -446 -31
-33 -58 -71 -62 -85 -19 -78 -227 -718 -296 -910 -164 -456 -315 -809 -388
-908 -43 -58 -64 -54 -106 21 -69 126 -238 322 -377 438 -92 77 -229 164 -343
219 -97 47 -299 120 -331 120 -8 0 -30 -11 -48 -25 -47 -36 -128 -51 -197 -38
-30 6 -55 10 -57 9 -1 -2 66 -26 150 -54 84 -28 218 -74 298 -102 144 -50 145
-50 80 -45 -89 8 -236 23 -350 35 -52 6 -142 15 -200 21 -58 5 -148 14 -200
20 -52 5 -130 12 -172 16 -77 6 -89 16 -42 33 13 5 24 16 24 25 0 18 43 20
152 6 147 -20 305 -34 319 -29 14 5 -236 94 -256 92 -5 -1 -22 -5 -37 -9 -24
-6 -29 -3 -37 18 -11 29 -59 49 -84 35 -10 -5 -32 -8 -50 -6 -29 3 -32 6 -32
38 0 19 -4 38 -8 41 -8 6 -18 59 -46 239 -13 79 -69 427 -111 685 -17 104 -32
190 -33 191 -1 1 -146 54 -322 119 -314 114 -583 213 -818 301 l-118 44 -37
-19 -37 -19 25 -10 c109 -40 532 -197 850 -316 l385 -143 7 -44 c5 -24 26
-156 48 -294 22 -137 44 -272 50 -300 5 -27 25 -149 45 -270 55 -340 56 -348
61 -377 l5 -27 -53 19 c-87 31 -127 46 -253 95 -66 25 -167 63 -225 84 -58 21
-235 86 -394 145 -159 58 -291 104 -293 102 -2 -2 -1 -26 3 -54 5 -37 12 -53
28 -61 18 -9 15 -10 -19 -6 -22 2 -65 7 -95 10 -30 3 -158 17 -285 31 -126 14
-266 29 -310 34 -124 13 -340 38 -565 66 -113 13 -243 29 -290 34 -47 6 -155
19 -240 30 -85 11 -160 20 -167 20 -16 0 -125 164 -173 260 -49 98 -63 148
-99 360 -47 274 -80 356 -184 461 -33 33 -61 58 -63 56 -2 -1 10 -42 27 -90
16 -48 42 -142 57 -210 l27 -122 -3 -475 c-3 -500 -14 -681 -51 -835 -11 -44
-18 -81 -17 -82 2 -3 238 24 283 32 28 5 32 3 38 -24 13 -60 -60 -56 1155 -51
l1115 5 175 -23 c96 -13 177 -26 179 -28 3 -2 -32 -41 -75 -87 -162 -166 -518
-600 -798 -972 -71 -93 -132 -174 -137 -179 -13 -14 -135 90 -344 294 -173
169 -243 232 -285 255 -17 9 6 -18 95 -115 95 -103 171 -201 320 -410 270
-379 335 -497 381 -685 40 -164 32 -158 90 -78 48 65 55 71 126 96 142 52 235
131 308 262 83 149 351 528 747 1058 126 168 135 177 161 171 38 -10 39 -10
45 -49 8 -49 38 -87 99 -128 131 -85 352 -142 698 -178 184 -20 740 -17 963 5
l188 18 55 -22 c52 -22 54 -24 49 -54 l-6 -31 113 -43 c62 -23 121 -42 131
-42 25 0 57 36 57 64 0 20 -17 31 -114 80 -63 31 -118 56 -122 56 -4 0 -16 -7
-25 -16 -16 -14 -23 -15 -50 -4 -40 17 -27 24 76 39 131 20 319 69 410 108
183 76 212 165 83 260 -44 32 -61 37 -151 49 -56 8 -135 14 -174 14 -41 0 -73
4 -73 10 0 5 27 78 61 162 130 325 239 646 300 882 18 71 37 129 43 131 6 1
38 7 71 14 135 25 269 119 350 245 46 73 127 261 162 375 20 67 26 109 27 191
0 98 -1 109 -31 170 -38 78 -90 133 -157 167 -41 21 -128 52 -146 53 -2 0 14
-19 37 -42z"/>
<path d="M5629 4794 c-13 -36 -9 -37 29 -11 38 27 40 37 7 37 -18 0 -28 -7
-36 -26z"/>
<path d="M6766 4654 c-4 -15 -6 -28 -4 -29 2 -2 19 10 38 26 l35 28 -31 1
c-26 0 -33 -5 -38 -26z"/>
<path d="M5808 4468 c-65 -46 -117 -87 -118 -92 0 -17 82 -136 112 -161 16
-14 38 -25 49 -25 47 0 82 121 77 268 l-3 92 -117 -82z"/>
<path d="M6943 4328 c-62 -44 -113 -85 -113 -93 0 -22 80 -134 116 -161 19
-15 41 -24 49 -20 40 15 85 217 68 307 l-8 46 -112 -79z"/>
<path d="M4961 3368 c-10 -18 -11 -20 0 -10 17 15 53 16 43 0 -4 -7 -3 -8 4
-4 7 4 12 14 12 22 0 23 -44 17 -59 -8z"/>
<path d="M5130 3331 c0 -8 106 -51 126 -51 14 0 -99 59 -113 60 -7 0 -13 -4
-13 -9z"/>
<path d="M5970 1156 l0 -494 -27 -6 c-26 -5 -652 -108 -958 -157 -150 -25
-165 -34 -165 -106 0 -40 25 -103 41 -103 3 0 -11 -18 -31 -39 -61 -64 -63
-141 -5 -208 30 -35 35 -37 104 -41 l71 -4 39 39 c67 67 65 161 -4 222 -34 29
-34 31 -13 35 13 3 79 10 148 16 69 6 294 26 500 45 271 25 376 32 381 23 4
-6 10 -29 13 -52 6 -36 4 -43 -19 -59 -80 -59 -72 -207 14 -252 17 -8 55 -15
85 -15 44 0 60 5 86 26 82 70 81 171 -4 241 -34 28 -34 29 -25 76 l11 47 51
-5 c61 -7 789 -72 897 -81 86 -7 116 -18 82 -29 -38 -11 -72 -73 -72 -129 0
-92 55 -146 150 -146 63 0 101 21 129 70 37 66 25 140 -30 191 -17 16 -26 29
-20 29 16 0 51 78 51 112 0 55 -33 74 -175 97 -933 151 -985 160 -996 166 -5
4 -9 199 -9 496 l0 489 -150 0 -150 0 0 -494z"/>
</g>
</svg>
